<svg width="53" height="47" viewBox="0 -2 53 51" fill="none" xmlns="http://www.w3.org/2000/svg"><path d="M23.869 28.612h5.193a5.24 5.24 0 0 0 3.672-1.497 5.07 5.07 0 0 0 1.52-3.614 5.07 5.07 0 0 0-1.52-3.614 5.24 5.24 0 0 0-3.672-1.497h-7.79c-1.558 0-2.856.511-3.635 1.533l-14.54 13.8m29.73-6.67 13.112-11.996c1.807-1.778 3.895-4.717 3.895-7.528a6.95 6.95 0 0 0-1.257-3.984 7.1 7.1 0 0 0-3.33-2.58 7.25 7.25 0 0 0-4.23-.269 7.16 7.16 0 0 0-3.639 2.139.72.72 0 0 1-.527.227.73.73 0 0 1-.527-.227 7.16 7.16 0 0 0-3.64-2.139 7.25 7.25 0 0 0-4.229.269 7.1 7.1 0 0 0-3.33 2.58A6.95 6.95 0 0 0 23.87 7.53c0 3.067 2.082 5.745 3.894 7.528l9.088 8.316M.5 31.167 16.079 46.5m-2.597-2.556 4.155-3.577c.779-1.022 2.077-1.533 3.635-1.533h10.386c2.856 0 5.453-1.023 7.27-3.067l11.944-11.244a5.08 5.08 0 0 0 1.626-3.574 5.07 5.07 0 0 0-1.418-3.658 5.24 5.24 0 0 0-3.631-1.6 5.25 5.25 0 0 0-3.717 1.396" stroke="#fff" stroke-linecap="round" stroke-linejoin="round" stroke-width="3"/></svg>